<?xml version="1.0" standalone="no"?>
<!DOCTYPE svg PUBLIC "-//W3C//DTD SVG 20010904//EN"
 "http://www.w3.org/TR/2001/REC-SVG-20010904/DTD/svg10.dtd">
<svg version="1.0" xmlns="http://www.w3.org/2000/svg"
 width="100.000000pt" height="100.000000pt" viewBox="0 0 100.000000 100.000000"
 preserveAspectRatio="xMidYMid meet">

<g transform="translate(0.000000,100.000000) scale(0.100000,-0.100000)"
fill="#000000" stroke="none">
<path d="M440 910 l0 -30 -60 0 -60 0 0 -30 c0 -27 -3 -30 -30 -30 -27 0 -30
-3 -30 -30 0 -27 -3 -30 -30 -30 -27 0 -30 -3 -30 -30 0 -27 -3 -30 -30 -30
l-30 0 0 -60 0 -60 -30 0 -30 0 0 -90 0 -90 30 0 30 0 0 -60 0 -60 30 0 c27 0
30 -3 30 -30 0 -27 3 -30 30 -30 27 0 30 -3 30 -30 0 -27 3 -30 30 -30 27 0
30 -3 30 -30 l0 -30 60 0 60 0 0 -30 0 -30 90 0 90 0 0 30 0 30 60 0 60 0 0
30 c0 27 3 30 30 30 27 0 30 3 30 30 0 27 3 30 30 30 27 0 30 3 30 30 0 27 3
30 30 30 27 0 30 3 30 30 0 27 -3 30 -30 30 -27 0 -30 3 -30 30 l0 30 -60 0
-60 0 0 30 0 30 -90 0 -90 0 0 30 0 30 90 0 90 0 0 30 0 30 60 0 60 0 0 30 c0
27 3 30 30 30 27 0 30 3 30 30 0 27 -3 30 -30 30 -27 0 -30 3 -30 30 0 27 -3
30 -30 30 -27 0 -30 3 -30 30 0 27 -3 30 -30 30 -27 0 -30 3 -30 30 l0 30 -60
0 -60 0 0 30 0 30 -90 0 -90 0 0 -30z m180 -60 l0 -30 60 0 60 0 0 -30 c0 -27
3 -30 30 -30 27 0 30 -3 30 -30 0 -27 3 -30 30 -30 27 0 30 -3 30 -30 l0 -30
-60 0 -60 0 0 -30 0 -30 -90 0 -90 0 0 -30 0 -30 -60 0 -60 0 0 -30 0 -30 60
0 60 0 0 -30 0 -30 90 0 90 0 0 -30 0 -30 60 0 60 0 0 -30 c0 -27 -3 -30 -30
-30 -27 0 -30 -3 -30 -30 0 -27 -3 -30 -30 -30 -27 0 -30 -3 -30 -30 l0 -30
-60 0 -60 0 0 -30 0 -30 -90 0 -90 0 0 30 0 30 -60 0 -60 0 0 30 c0 27 -3 30
-30 30 -27 0 -30 3 -30 30 0 27 -3 30 -30 30 l-30 0 0 60 0 60 -30 0 -30 0 0
90 0 90 30 0 30 0 0 60 0 60 30 0 c27 0 30 3 30 30 0 27 3 30 30 30 27 0 30 3
30 30 l0 30 60 0 60 0 0 30 0 30 90 0 90 0 0 -30z"/>
<path d="M500 670 c0 -27 3 -30 30 -30 27 0 30 3 30 30 0 27 -3 30 -30 30 -27
0 -30 -3 -30 -30z"/>
</g>
</svg>
